<svg width="82" height="20" viewBox="0 0 82 20" fill="none" xmlns="http://www.w3.org/2000/svg">
<path d="M21.0043 15V4.81818H24.8224C25.6046 4.81818 26.2609 4.96401 26.7912 5.25568C27.3248 5.54735 27.7275 5.94839 27.9993 6.45881C28.2744 6.96591 28.4119 7.54261 28.4119 8.18892C28.4119 8.84186 28.2744 9.42187 27.9993 9.92898C27.7242 10.4361 27.3182 10.8355 26.7812 11.1271C26.2443 11.4155 25.5831 11.5597 24.7976 11.5597H22.267V10.0433H24.549C25.0064 10.0433 25.3809 9.96378 25.6726 9.80469C25.9643 9.6456 26.1797 9.42685 26.3189 9.14844C26.4614 8.87003 26.5327 8.55019 26.5327 8.18892C26.5327 7.82765 26.4614 7.50947 26.3189 7.23438C26.1797 6.95928 25.9626 6.7455 25.6676 6.59304C25.3759 6.43726 24.9998 6.35938 24.5391 6.35938H22.8487V15H21.0043ZM33.1561 15.1491C32.4103 15.1491 31.764 14.9851 31.2172 14.657C30.6703 14.3288 30.246 13.8698 29.9444 13.2798C29.6461 12.6899 29.497 12.0005 29.497 11.2116C29.497 10.4228 29.6461 9.73177 29.9444 9.13849C30.246 8.54522 30.6703 8.08452 31.2172 7.75639C31.764 7.42827 32.4103 7.2642 33.1561 7.2642C33.9018 7.2642 34.5481 7.42827 35.095 7.75639C35.6419 8.08452 36.0645 8.54522 36.3627 9.13849C36.6644 9.73177 36.8152 10.4228 36.8152 11.2116C36.8152 12.0005 36.6644 12.6899 36.3627 13.2798C36.0645 13.8698 35.6419 14.3288 35.095 14.657C34.5481 14.9851 33.9018 15.1491 33.1561 15.1491ZM33.166 13.7074C33.5704 13.7074 33.9084 13.5964 34.1802 13.3743C34.452 13.1489 34.6542 12.8473 34.7868 12.4695C34.9226 12.0916 34.9906 11.6707 34.9906 11.2067C34.9906 10.7393 34.9226 10.3168 34.7868 9.93892C34.6542 9.55777 34.452 9.2545 34.1802 9.02912C33.9084 8.80374 33.5704 8.69105 33.166 8.69105C32.7517 8.69105 32.407 8.80374 32.1319 9.02912C31.8601 9.2545 31.6563 9.55777 31.5204 9.93892C31.3878 10.3168 31.3216 10.7393 31.3216 11.2067C31.3216 11.6707 31.3878 12.0916 31.5204 12.4695C31.6563 12.8473 31.8601 13.1489 32.1319 13.3743C32.407 13.5964 32.7517 13.7074 33.166 13.7074ZM39.9833 12.6037L39.9783 10.4311H40.2667L43.011 7.36364H45.114L41.7383 11.1222H41.3654L39.9833 12.6037ZM38.3427 15V4.81818H40.1424V15H38.3427ZM43.1353 15L40.6495 11.5249L41.8626 10.2571L45.288 15H43.1353ZM49.3796 15.1491C48.614 15.1491 47.9528 14.9901 47.396 14.6719C46.8424 14.3504 46.4165 13.8963 46.1183 13.3097C45.82 12.7197 45.6708 12.0253 45.6708 11.2266C45.6708 10.4411 45.82 9.75166 46.1183 9.15838C46.4199 8.56179 46.8408 8.09777 47.381 7.76633C47.9213 7.43158 48.556 7.2642 49.2852 7.2642C49.7558 7.2642 50.1999 7.34044 50.6175 7.4929C51.0385 7.64205 51.4097 7.87405 51.7312 8.18892C52.056 8.50379 52.3112 8.90483 52.4968 9.39205C52.6824 9.87595 52.7752 10.4527 52.7752 11.1222V11.674H46.516V10.4609H51.0501C51.0468 10.1162 50.9722 9.80966 50.8263 9.54119C50.6805 9.26941 50.4767 9.05563 50.2148 8.89986C49.9563 8.74408 49.6547 8.66619 49.31 8.66619C48.9421 8.66619 48.619 8.75568 48.3406 8.93466C48.0621 9.11032 47.8451 9.34233 47.6893 9.63068C47.5368 9.91572 47.4589 10.2289 47.4556 10.5703V11.6293C47.4556 12.0734 47.5368 12.4545 47.6992 12.7727C47.8616 13.0876 48.0887 13.3295 48.3803 13.4986C48.672 13.6643 49.0134 13.7472 49.4045 13.7472C49.6663 13.7472 49.9033 13.7107 50.1154 13.6378C50.3275 13.5616 50.5115 13.4505 50.6673 13.3047C50.823 13.1589 50.9407 12.9782 51.0202 12.7628L52.7006 12.9517C52.5946 13.3958 52.3924 13.7836 52.0941 14.1151C51.7991 14.4432 51.4213 14.6984 50.9606 14.8807C50.4999 15.0597 49.9729 15.1491 49.3796 15.1491ZM54.2978 15V7.36364H56.0428V8.63636H56.1223C56.2615 8.19555 56.5002 7.85582 56.8382 7.61719C57.1796 7.37524 57.5691 7.25426 58.0066 7.25426C58.106 7.25426 58.217 7.25923 58.3397 7.26918C58.4656 7.2758 58.57 7.2874 58.6529 7.30398V8.95952C58.5766 8.933 58.4557 8.9098 58.29 8.88991C58.1275 8.86671 57.9701 8.85511 57.8176 8.85511C57.4895 8.85511 57.1945 8.92637 56.9327 9.06889C56.6742 9.2081 56.4703 9.40199 56.3212 9.65057C56.1721 9.89915 56.0975 10.1858 56.0975 10.5107V15H54.2978ZM62.9533 6.36435V4.81818H71.0769V6.36435H67.9299V15H66.1003V6.36435H62.9533ZM74.0051 4.81818L76.655 12.8324H76.7594L79.4043 4.81818H81.4327L77.8432 15H75.5662L71.9817 4.81818H74.0051Z" fill="white"/>
<g filter="url(#filter0_i_1887_13115)">
<path d="M12.5 5.99998H10.4087L12.2573 4.30248C12.9868 3.63198 11.9744 2.52723 11.2427 3.1975L8.19068 5.99998H7.68628L5.25733 3.76951C4.52694 3.09989 3.51214 4.20303 4.24267 4.87448L5.46832 5.99998H3.5C2.8372 6.00076 2.20177 6.2644 1.73309 6.73307C1.26442 7.20174 1.00078 7.83717 1 8.49998V14.5C1.00078 15.1628 1.26442 15.7982 1.73309 16.2669C2.20177 16.7356 2.8372 16.9992 3.5 17H12.5C13.1628 16.9992 13.7982 16.7356 14.2669 16.2669C14.7356 15.7982 14.9992 15.1628 15 14.5V8.49998C14.9992 7.83717 14.7356 7.20174 14.2669 6.73307C13.7982 6.2644 13.1628 6.00076 12.5 5.99998Z" fill="url(#paint0_linear_1887_13115)"/>
</g>
<g filter="url(#filter1_di_1887_13115)">
<path d="M5.50256 13.2624V9.73754C5.50293 9.51737 5.56137 9.30119 5.67201 9.11084C5.78264 8.92049 5.94155 8.7627 6.13267 8.6534C6.32379 8.54411 6.54037 8.48718 6.76054 8.48836C6.9807 8.48954 7.19666 8.5488 7.3866 8.66014L10.3815 10.4226C10.5691 10.533 10.7246 10.6905 10.8327 10.8794C10.9407 11.0684 10.9975 11.2823 10.9975 11.5C10.9975 11.7177 10.9407 11.9316 10.8327 12.1205C10.7246 12.3095 10.5691 12.467 10.3815 12.5774L7.3866 14.3398C7.19667 14.4513 6.9807 14.5106 6.7605 14.5118C6.54029 14.5131 6.32367 14.4562 6.13251 14.3468C5.94136 14.2375 5.78244 14.0797 5.67183 13.8893C5.56122 13.6989 5.50283 13.4826 5.50256 13.2624Z" fill="#242424"/>
</g>
<defs>
<filter id="filter0_i_1887_13115" x="1" y="2.98932" width="14" height="14.0107" filterUnits="userSpaceOnUse" color-interpolation-filters="sRGB">
<feFlood flood-opacity="0" result="BackgroundImageFix"/>
<feBlend mode="normal" in="SourceGraphic" in2="BackgroundImageFix" result="shape"/>
<feColorMatrix in="SourceAlpha" type="matrix" values="0 0 0 0 0 0 0 0 0 0 0 0 0 0 0 0 0 0 127 0" result="hardAlpha"/>
<feOffset dy="0.5"/>
<feComposite in2="hardAlpha" operator="arithmetic" k2="-1" k3="1"/>
<feColorMatrix type="matrix" values="0 0 0 0 1 0 0 0 0 0.979766 0 0 0 0 0.757194 0 0 0 1 0"/>
<feBlend mode="normal" in2="shape" result="effect1_innerShadow_1887_13115"/>
</filter>
<filter id="filter1_di_1887_13115" x="5.50256" y="8.48834" width="5.495" height="6.5235" filterUnits="userSpaceOnUse" color-interpolation-filters="sRGB">
<feFlood flood-opacity="0" result="BackgroundImageFix"/>
<feColorMatrix in="SourceAlpha" type="matrix" values="0 0 0 0 0 0 0 0 0 0 0 0 0 0 0 0 0 0 127 0" result="hardAlpha"/>
<feOffset dy="0.2"/>
<feComposite in2="hardAlpha" operator="out"/>
<feColorMatrix type="matrix" values="0 0 0 0 1 0 0 0 0 1 0 0 0 0 1 0 0 0 0.32 0"/>
<feBlend mode="normal" in2="BackgroundImageFix" result="effect1_dropShadow_1887_13115"/>
<feBlend mode="normal" in="SourceGraphic" in2="effect1_dropShadow_1887_13115" result="shape"/>
<feColorMatrix in="SourceAlpha" type="matrix" values="0 0 0 0 0 0 0 0 0 0 0 0 0 0 0 0 0 0 127 0" result="hardAlpha"/>
<feOffset dy="0.5"/>
<feGaussianBlur stdDeviation="0.5"/>
<feComposite in2="hardAlpha" operator="arithmetic" k2="-1" k3="1"/>
<feColorMatrix type="matrix" values="0 0 0 0 0 0 0 0 0 0 0 0 0 0 0 0 0 0 0.8 0"/>
<feBlend mode="normal" in2="shape" result="effect2_innerShadow_1887_13115"/>
</filter>
<linearGradient id="paint0_linear_1887_13115" x1="8" y1="17" x2="8" y2="2.98932" gradientUnits="userSpaceOnUse">
<stop stop-color="#D88F3C"/>
<stop offset="1" stop-color="#FCEAA6"/>
</linearGradient>
</defs>
</svg>
